<?xml version="1.0" encoding="utf-8"?>
<!-- Generator: Adobe Illustrator 19.1.0, SVG Export Plug-In . SVG Version: 6.00 Build 0)  -->
<svg version="1.1" id="Слой_1" xmlns="http://www.w3.org/2000/svg" xmlns:xlink="http://www.w3.org/1999/xlink" x="0px" y="0px"
	 viewBox="0 0 500 500" style="enable-background:new 0 0 500 500;" xml:space="preserve">
<style type="text/css">
	.st0{fill:#0C0E0F;}
</style>
<g>
	
		<rect x="16.6" y="212.4" transform="matrix(0.7071 -0.7071 0.7071 0.7071 -161.2124 112.2799)" class="st0" width="76.6" height="76.6"/>
	<polygon class="st0" points="250,109.9 260.8,120.7 130.8,250.7 185,304.9 315,174.9 380,239.9 434.2,185.7 304.2,55.7 292.7,44.2 
		250,1.5 65.8,185.7 120,239.9 	"/>
	
		<rect x="406.8" y="212.4" transform="matrix(0.7071 -0.7071 0.7071 0.7071 -46.9413 388.1539)" class="st0" width="76.6" height="76.6"/>
	<polygon class="st0" points="250,391.6 239.2,380.8 369.2,250.7 315,196.6 185,326.6 120,261.6 65.8,315.8 130.8,380.8 
		130.8,380.8 185,435 185,435 195.8,445.8 195.8,445.8 250,500 434.2,315.8 380,261.6 	"/>
</g>
</svg>
