<?xml version="1.0" encoding="UTF-8" standalone="no"?>
<svg width="35px" height="37px" viewBox="0 0 35 37" version="1.1" xmlns="http://www.w3.org/2000/svg" xmlns:xlink="http://www.w3.org/1999/xlink">
    <!-- Generator: Sketch 3.8.3 (29802) - http://www.bohemiancoding.com/sketch -->
    <title>Group 12</title>
    <desc>Created with Sketch.</desc>
    <defs></defs>
    <g id="Page-1" stroke="none" stroke-width="1" fill="none" fill-rule="evenodd">
        <g id="5.0_contacts" transform="translate(-859.000000, -926.000000)">
            <g id="Group-Copy" transform="translate(859.000000, 926.000000)">
                <g id="Group-12">
                    <path d="M32.7142857,34.21875 L5.28571429,34.21875 L5.28571429,11.40625 L11.8571429,11.40625 C13.1188571,11.40625 14.4285714,10.38425 14.4285714,9.125 L14.4285714,2.28125 L32.7142857,2.28125 L32.7142857,34.21875 Z M12.1428571,3.421875 L12.1428571,9.125 L6.14285714,9.125 L12.1428571,3.421875 Z M32.4285714,0 L11.8571429,0 L3,9.125 L3,34.21875 C3,35.478 3.736,36.5 5,36.5 L32.4285714,36.5 C33.6902857,36.5 35,35.478 35,34.21875 L35,2.28125 C35,1.022 33.6902857,0 32.4285714,0 L32.4285714,0 Z" id="Fill-1" fill="#F2F0E2" transform="translate(19.000000, 18.250000) scale(-1, 1) translate(-19.000000, -18.250000) "></path>
                    <rect id="Rectangle-1-Copy-2" fill="#FFE040" x="0" y="15" width="24" height="16"></rect>
                    <text id=".PDF" font-family="GothamPro-Medium, Gotham Pro" font-size="8" font-weight="400" line-spacing="8" fill="#5B5B5B">
                        <tspan x="2.5" y="25">.PDF</tspan>
                    </text>
                </g>
            </g>
        </g>
    </g>
</svg>